<?xml version="1.0" encoding="UTF-8" standalone="no"?>
<!-- Created with Inkscape (http://www.inkscape.org/) -->

<svg
   xmlns:dc="http://purl.org/dc/elements/1.1/"
   xmlns:cc="http://creativecommons.org/ns#"
   xmlns:rdf="http://www.w3.org/1999/02/22-rdf-syntax-ns#"
   xmlns:svg="http://www.w3.org/2000/svg"
   xmlns="http://www.w3.org/2000/svg"
   xmlns:sodipodi="http://sodipodi.sourceforge.net/DTD/sodipodi-0.dtd"
   xmlns:inkscape="http://www.inkscape.org/namespaces/inkscape"
   width="210mm"
   height="297mm"
   viewBox="0 0 210 297"
   version="1.1"
   id="svg8"
   inkscape:version="0.92.3 (2405546, 2018-03-11)"
   sodipodi:docname="cetera2.svg"
   inkscape:export-filename="C:\Users\Dita\Desktop\cetera2.png"
   inkscape:export-xdpi="96"
   inkscape:export-ydpi="96">
  <defs
     id="defs2">
    <inkscape:path-effect
       effect="ellipse_5pts"
       id="path-effect4791"
       is_visible="true" />
    <inkscape:path-effect
       effect="bounding_box"
       id="path-effect4789"
       is_visible="true"
       linkedpath=""
       visualbounds="false" />
    <clipPath
       id="clipPath26"
       clipPathUnits="userSpaceOnUse">
      <path
         inkscape:connector-curvature="0"
         id="path24"
         d="M 0,595.28 H 841.89 V 0 H 0 Z" />
    </clipPath>
    <clipPath
       id="clipPath4668"
       clipPathUnits="userSpaceOnUse">
      <path
         inkscape:connector-curvature="0"
         id="path4666"
         d="M 0,595.28 H 841.89 V 0 H 0 Z" />
    </clipPath>
  </defs>
  <sodipodi:namedview
     id="base"
     pagecolor="#ffffff"
     bordercolor="#666666"
     borderopacity="1.0"
     inkscape:pageopacity="0.0"
     inkscape:pageshadow="2"
     inkscape:zoom="2.8"
     inkscape:cx="313.01622"
     inkscape:cy="585.77339"
     inkscape:document-units="mm"
     inkscape:current-layer="layer1"
     showgrid="false"
     inkscape:window-width="1920"
     inkscape:window-height="1001"
     inkscape:window-x="-9"
     inkscape:window-y="1341"
     inkscape:window-maximized="1" />
  <metadata
     id="metadata5">
    <rdf:RDF>
      <cc:Work
         rdf:about="">
        <dc:format>image/svg+xml</dc:format>
        <dc:type
           rdf:resource="http://purl.org/dc/dcmitype/StillImage" />
        <dc:title></dc:title>
      </cc:Work>
    </rdf:RDF>
  </metadata>
  <g
     inkscape:label="Layer 1"
     inkscape:groupmode="layer"
     id="layer1">
    <g
       id="g4670"
       transform="matrix(0.35277777,0,0,-0.35277777,66.346443,175.16354)"
       style="fill:#505550;fill-opacity:1">
      <path
         d="m 0,0 c -11.878,0 -20.76,8.282 -20.76,20.379 0,12.369 9.154,20.269 20.924,20.269 5.394,0 11.224,-1.96 14.439,-5.666 L 8.282,28.661 c -1.743,2.398 -4.849,3.542 -7.792,3.542 -6.484,0 -11.115,-5.014 -11.115,-11.824 0,-7.029 4.522,-11.824 10.952,-11.824 3.651,0 6.539,1.634 8.173,3.924 L 14.984,6.375 C 11.606,2.451 6.484,0 0,0"
         style="fill:#505550;fill-opacity:1;fill-rule:nonzero;stroke:none"
         id="path4672"
         inkscape:connector-curvature="0" />
    </g>
    <g
       id="g4674"
       transform="matrix(0.35277777,0,0,-0.35277777,75.342417,174.79834)"
       style="fill:#505550;fill-opacity:1">
      <path
         d="m 0,0 v 38.578 h 25.937 v -7.9 H 8.991 V 23.43 h 16.02 V 15.965 H 8.991 V 7.955 H 26.918 V 0 Z"
         style="fill:#505550;fill-opacity:1;fill-rule:nonzero;stroke:none"
         id="path4676"
         inkscape:connector-curvature="0" />
    </g>
    <g
       id="g4678"
       transform="matrix(0.35277777,0,0,-0.35277777,95.141575,163.99523)"
       style="fill:#505550;fill-opacity:1">
      <path
         d="M 0,0 V -30.623 H -9.317 V 0 H -20.215 V 7.955 H 10.898 V 0 Z"
         style="fill:#505550;fill-opacity:1;fill-rule:nonzero;stroke:none"
         id="path4680"
         inkscape:connector-curvature="0" />
    </g>
    <g
       id="g4682"
       transform="matrix(0.35277777,0,0,-0.35277777,102.79191,174.79834)"
       style="fill:#505550;fill-opacity:1">
      <path
         d="m 0,0 v 38.578 h 25.937 v -7.9 H 8.991 V 23.43 h 16.02 V 15.965 H 8.991 V 7.955 H 26.918 V 0 Z"
         style="fill:#505550;fill-opacity:1;fill-rule:nonzero;stroke:none"
         id="path4684"
         inkscape:connector-curvature="0" />
    </g>
    <g
       id="g4686"
       transform="matrix(0.35277777,0,0,-0.35277777,121.72617,163.84156)"
       style="fill:#505550;fill-opacity:1">
      <path
         d="m 0,0 h -4.958 v -8.99 h 4.413 c 2.997,0 6.757,0.762 6.757,4.685 C 6.212,-0.708 2.778,0 0,0 m 6.593,-31.059 -8.336,15.312 h -3.161 v -15.312 h -9.155 V 7.52 H 0.653 c 7.41,0 14.768,-2.833 14.768,-11.661 0,-5.176 -3.053,-8.881 -8.011,-10.408 l 10.081,-16.51 z"
         style="fill:#505550;fill-opacity:1;fill-rule:nonzero;stroke:none"
         id="path4688"
         inkscape:connector-curvature="0" />
    </g>
    <g
       id="g4690"
       transform="matrix(0.35277777,0,0,-0.35277777,137.39239,164.82204)"
       style="fill:#505550;fill-opacity:1">
      <path
         d="m 0,0 -4.904,-13.24 h 9.699 z m 10.353,-28.279 -2.997,7.574 h -14.93 l -2.833,-7.574 h -10.135 l 16.183,38.578 h 9.046 l 16.019,-38.578 z"
         style="fill:#505550;fill-opacity:1;fill-rule:nonzero;stroke:none"
         id="path4692"
         inkscape:connector-curvature="0" />
    </g>
    <path
       inkscape:connector-curvature="0"
       id="path4696"
       style="fill:#b41b7a;fill-opacity:1;fill-rule:nonzero;stroke:none;stroke-width:0.35277778"
       d="m 108.68302,138.54542 -7.44008,7.44008 -9.98326,-9.9829 9.98326,-9.98255 7.44008,7.44008 4.71029,-4.70994 -12.15037,-12.15037 -19.40278,19.40278 19.40278,19.40277 12.15037,-12.15001 z" />
    <path
       inkscape:connector-curvature="0"
       id="path4700"
       style="fill:#7ab41b;fill-opacity:1;fill-rule:nonzero;stroke:none;stroke-width:0.35277778"
       d="m 115.93564,140.90049 -4.89762,-4.89761 4.89762,-4.89762 4.89761,4.89762 z" />
    <path
       inkscape:connector-curvature="0"
       id="path4704"
       style="fill:#7ab41b;fill-opacity:1;fill-rule:nonzero;stroke:none;stroke-width:0.35277778"
       d="m 101.24283,140.90049 -4.897612,-4.89761 4.897612,-4.89762 4.89762,4.89762 z" />
  </g>
</svg>
